<?xml version="1.0" encoding="UTF-8"?>
<svg xmlns="http://www.w3.org/2000/svg" xmlns:xlink="http://www.w3.org/1999/xlink" width="66.308pt" height="151.347pt" viewBox="0 0 66.308 151.347" version="1.1">
<defs>
<clipPath id="clip1">
  <path d="M 0 0 L 66.308594 0 L 66.308594 74 L 0 74 Z M 0 0 "/>
</clipPath>
<clipPath id="clip2">
  <path d="M 49 0 L 66.308594 0 L 66.308594 18 L 49 18 Z M 49 0 "/>
</clipPath>
<clipPath id="clip3">
  <path d="M 0 134 L 18 134 L 18 151.347656 L 0 151.347656 Z M 0 134 "/>
</clipPath>
<clipPath id="clip4">
  <path d="M 11 134 L 37 134 L 37 151.347656 L 11 151.347656 Z M 11 134 "/>
</clipPath>
<clipPath id="clip5">
  <path d="M 30 134 L 56 134 L 56 151.347656 L 30 151.347656 Z M 30 134 "/>
</clipPath>
<clipPath id="clip6">
  <path d="M 0 77 L 66.308594 77 L 66.308594 151.347656 L 0 151.347656 Z M 0 77 "/>
</clipPath>
<clipPath id="clip7">
  <path d="M 49 77 L 66.308594 77 L 66.308594 103 L 49 103 Z M 49 77 "/>
</clipPath>
</defs>
<g id="surface1">
<path style="fill:none;stroke-width:0.59776;stroke-linecap:butt;stroke-linejoin:miter;stroke:rgb(0%,0%,0%);stroke-opacity:1;stroke-miterlimit:10;" d="M -28.348125 -28.345812 L -28.348125 28.345594 L 28.347188 28.345594 L 28.347188 -28.345812 Z M -28.348125 -28.345812 " transform="matrix(1,0,0,-1,29.145,37.162)"/>
<g clip-path="url(#clip1)" clip-rule="nonzero">
<path style="fill:none;stroke-width:0.59776;stroke-linecap:butt;stroke-linejoin:miter;stroke:rgb(0%,0%,0%);stroke-opacity:1;stroke-miterlimit:10;" d="M 28.347188 -28.345812 L 36.362813 -20.330187 L 36.362813 36.365125 L -20.328594 36.365125 L -28.348125 28.345594 " transform="matrix(1,0,0,-1,29.145,37.162)"/>
</g>
<g clip-path="url(#clip2)" clip-rule="nonzero">
<path style="fill:none;stroke-width:0.59776;stroke-linecap:butt;stroke-linejoin:miter;stroke:rgb(0%,0%,0%);stroke-opacity:1;stroke-miterlimit:10;" d="M 28.347188 28.345594 L 36.362813 36.365125 " transform="matrix(1,0,0,-1,29.145,37.162)"/>
</g>
<g clip-path="url(#clip3)" clip-rule="nonzero">
<path style="fill:none;stroke-width:0.59776;stroke-linecap:butt;stroke-linejoin:miter;stroke:rgb(69.999695%,69.999695%,69.999695%);stroke-opacity:1;stroke-miterlimit:10;" d="M -28.348125 -113.388781 L -20.328594 -105.36925 " transform="matrix(1,0,0,-1,29.145,37.162)"/>
</g>
<g clip-path="url(#clip4)" clip-rule="nonzero">
<path style="fill:none;stroke-width:0.59776;stroke-linecap:butt;stroke-linejoin:miter;stroke:rgb(69.999695%,69.999695%,69.999695%);stroke-opacity:1;stroke-miterlimit:10;" d="M -9.449687 -113.388781 L -1.430156 -105.36925 " transform="matrix(1,0,0,-1,29.145,37.162)"/>
</g>
<g clip-path="url(#clip5)" clip-rule="nonzero">
<path style="fill:none;stroke-width:0.59776;stroke-linecap:butt;stroke-linejoin:miter;stroke:rgb(69.999695%,69.999695%,69.999695%);stroke-opacity:1;stroke-miterlimit:10;" d="M 9.44875 -113.388781 L 17.464375 -105.36925 " transform="matrix(1,0,0,-1,29.145,37.162)"/>
</g>
<path style="fill:none;stroke-width:0.59776;stroke-linecap:butt;stroke-linejoin:miter;stroke:rgb(69.999695%,69.999695%,69.999695%);stroke-opacity:1;stroke-miterlimit:10;" d="M -9.449687 -94.490344 L -1.430156 -86.470812 " transform="matrix(1,0,0,-1,29.145,37.162)"/>
<path style="fill:none;stroke-width:0.59776;stroke-linecap:butt;stroke-linejoin:miter;stroke:rgb(69.999695%,69.999695%,69.999695%);stroke-opacity:1;stroke-miterlimit:10;" d="M -9.449687 -75.591906 L -1.430156 -67.576281 " transform="matrix(1,0,0,-1,29.145,37.162)"/>
<path style="fill:none;stroke-width:0.59776;stroke-linecap:butt;stroke-linejoin:miter;stroke:rgb(69.999695%,69.999695%,69.999695%);stroke-opacity:1;stroke-miterlimit:10;" d="M 9.44875 -94.490344 L 17.464375 -86.470812 " transform="matrix(1,0,0,-1,29.145,37.162)"/>
<path style="fill:none;stroke-width:0.59776;stroke-linecap:butt;stroke-linejoin:miter;stroke:rgb(69.999695%,69.999695%,69.999695%);stroke-opacity:1;stroke-miterlimit:10;" d="M 9.44875 -75.591906 L 17.464375 -67.576281 " transform="matrix(1,0,0,-1,29.145,37.162)"/>
<path style="fill:none;stroke-width:0.59776;stroke-linecap:butt;stroke-linejoin:miter;stroke:rgb(69.999695%,69.999695%,69.999695%);stroke-opacity:1;stroke-miterlimit:10;" d="M -20.328594 -105.36925 L -20.328594 -48.677844 " transform="matrix(1,0,0,-1,29.145,37.162)"/>
<path style="fill:none;stroke-width:0.59776;stroke-linecap:butt;stroke-linejoin:miter;stroke:rgb(69.999695%,69.999695%,69.999695%);stroke-opacity:1;stroke-miterlimit:10;" d="M -1.430156 -105.36925 L -1.430156 -48.677844 " transform="matrix(1,0,0,-1,29.145,37.162)"/>
<path style="fill:none;stroke-width:0.59776;stroke-linecap:butt;stroke-linejoin:miter;stroke:rgb(69.999695%,69.999695%,69.999695%);stroke-opacity:1;stroke-miterlimit:10;" d="M 17.464375 -105.36925 L 17.464375 -48.677844 " transform="matrix(1,0,0,-1,29.145,37.162)"/>
<path style="fill:none;stroke-width:0.59776;stroke-linecap:butt;stroke-linejoin:miter;stroke:rgb(69.999695%,69.999695%,69.999695%);stroke-opacity:1;stroke-miterlimit:10;" d="M -20.328594 -105.36925 L 36.362813 -105.36925 " transform="matrix(1,0,0,-1,29.145,37.162)"/>
<path style="fill:none;stroke-width:0.59776;stroke-linecap:butt;stroke-linejoin:miter;stroke:rgb(69.999695%,69.999695%,69.999695%);stroke-opacity:1;stroke-miterlimit:10;" d="M -1.430156 -86.470812 L 17.464375 -86.470812 " transform="matrix(1,0,0,-1,29.145,37.162)"/>
<path style="fill:none;stroke-width:0.59776;stroke-linecap:butt;stroke-linejoin:miter;stroke:rgb(69.999695%,69.999695%,69.999695%);stroke-opacity:1;stroke-miterlimit:10;" d="M -1.430156 -67.576281 L 17.464375 -67.576281 " transform="matrix(1,0,0,-1,29.145,37.162)"/>
<path style="fill:none;stroke-width:0.59776;stroke-linecap:butt;stroke-linejoin:miter;stroke:rgb(0%,0%,0%);stroke-opacity:1;stroke-miterlimit:10;" d="M -28.348125 -113.388781 L -28.348125 -56.693469 L 28.347188 -56.693469 L 28.347188 -113.388781 Z M -28.348125 -113.388781 " transform="matrix(1,0,0,-1,29.145,37.162)"/>
<g clip-path="url(#clip6)" clip-rule="nonzero">
<path style="fill:none;stroke-width:0.59776;stroke-linecap:butt;stroke-linejoin:miter;stroke:rgb(0%,0%,0%);stroke-opacity:1;stroke-miterlimit:10;" d="M 28.347188 -113.388781 L 36.362813 -105.36925 L 36.362813 -48.677844 L -20.328594 -48.677844 L -28.348125 -56.693469 " transform="matrix(1,0,0,-1,29.145,37.162)"/>
</g>
<g clip-path="url(#clip7)" clip-rule="nonzero">
<path style="fill:none;stroke-width:0.59776;stroke-linecap:butt;stroke-linejoin:miter;stroke:rgb(0%,0%,0%);stroke-opacity:1;stroke-miterlimit:10;" d="M 28.347188 -56.693469 L 36.362813 -48.677844 " transform="matrix(1,0,0,-1,29.145,37.162)"/>
</g>
<path style="fill:none;stroke-width:0.59776;stroke-linecap:butt;stroke-linejoin:miter;stroke:rgb(0%,0%,0%);stroke-opacity:1;stroke-miterlimit:10;" d="M -9.449687 -113.388781 L -9.449687 -56.693469 " transform="matrix(1,0,0,-1,29.145,37.162)"/>
<path style="fill:none;stroke-width:0.59776;stroke-linecap:butt;stroke-linejoin:miter;stroke:rgb(0%,0%,0%);stroke-opacity:1;stroke-miterlimit:10;" d="M 9.44875 -113.388781 L 9.44875 -56.693469 " transform="matrix(1,0,0,-1,29.145,37.162)"/>
<path style="fill:none;stroke-width:0.59776;stroke-linecap:butt;stroke-linejoin:miter;stroke:rgb(0%,0%,0%);stroke-opacity:1;stroke-miterlimit:10;" d="M -9.449687 -75.591906 L 9.44875 -75.591906 " transform="matrix(1,0,0,-1,29.145,37.162)"/>
<path style="fill:none;stroke-width:0.59776;stroke-linecap:butt;stroke-linejoin:miter;stroke:rgb(0%,0%,0%);stroke-opacity:1;stroke-miterlimit:10;" d="M -9.449687 -94.490344 L 9.44875 -94.490344 " transform="matrix(1,0,0,-1,29.145,37.162)"/>
<path style="fill:none;stroke-width:0.59776;stroke-linecap:butt;stroke-linejoin:miter;stroke:rgb(0%,0%,0%);stroke-opacity:1;stroke-miterlimit:10;" d="M -9.449687 -56.693469 L -1.430156 -48.677844 " transform="matrix(1,0,0,-1,29.145,37.162)"/>
<path style="fill:none;stroke-width:0.59776;stroke-linecap:butt;stroke-linejoin:miter;stroke:rgb(0%,0%,0%);stroke-opacity:1;stroke-miterlimit:10;" d="M 9.44875 -56.693469 L 17.464375 -48.677844 " transform="matrix(1,0,0,-1,29.145,37.162)"/>
<path style="fill:none;stroke-width:1.4174;stroke-linecap:butt;stroke-linejoin:miter;stroke:rgb(0%,0%,0%);stroke-opacity:1;stroke-miterlimit:10;" d="M -0.00046875 -31.18175 L -0.00046875 -51.740344 " transform="matrix(1,0,0,-1,29.145,37.162)"/>
<path style="fill-rule:nonzero;fill:rgb(0%,0%,0%);fill-opacity:1;stroke-width:1.4174;stroke-linecap:butt;stroke-linejoin:round;stroke:rgb(0%,0%,0%);stroke-opacity:1;stroke-miterlimit:10;" d="M 1.40877 -0.00046875 C -0.352949 0.351094 -2.110761 1.058125 -4.224043 2.288594 C -2.110761 0.702656 -2.110761 -0.703594 -4.224043 -2.289531 C -2.110761 -1.055156 -0.352949 -0.352031 1.40877 -0.00046875 Z M 1.40877 -0.00046875 " transform="matrix(0,1,1,0,29.145,88.90373)"/>
</g>
</svg>
